<svg width="363" height="222" viewBox="0 0 363 222" fill="none" xmlns="http://www.w3.org/2000/svg">
<g clip-path="url(#clip0_20_120)">
<path d="M43.8659 222L43.2429 221.859C50.1887 190.87 67.6441 162.73 92.3936 142.621C111.105 127.442 133.359 117.29 157.061 113.121C180.763 108.952 205.133 110.904 227.875 118.792C250.618 126.68 270.985 140.245 287.059 158.21C303.134 176.175 314.386 197.949 319.757 221.481L319.135 221.623C304.432 156.857 247.852 111.623 181.543 111.623C116.103 111.623 58.2011 158.043 43.8659 222Z" fill="#3F3D56"/>
<path d="M133.174 39.6264C142.751 39.6264 150.515 31.8375 150.515 22.2295C150.515 12.6215 142.751 4.83264 133.174 4.83264C123.597 4.83264 115.834 12.6215 115.834 22.2295C115.834 31.8375 123.597 39.6264 133.174 39.6264Z" fill="#FF6584"/>
<path d="M58.4665 218.048C59.0074 220.054 60.8598 221.296 60.8598 221.296C60.8598 221.296 61.8353 219.286 61.2945 217.281C60.7537 215.275 58.9013 214.033 58.9013 214.033C58.9013 214.033 57.9257 216.042 58.4665 218.048Z" fill="#3F3D56"/>
<path d="M59.2613 217.617C60.7453 219.066 60.9265 221.294 60.9265 221.294C60.9265 221.294 58.7018 221.172 57.2178 219.723C55.7338 218.274 55.5525 216.046 55.5525 216.046C55.5525 216.046 57.7773 216.168 59.2613 217.617Z" fill="#217BF4"/>
<path d="M99.6511 218.048C100.192 220.054 102.044 221.296 102.044 221.296C102.044 221.296 103.02 219.286 102.479 217.281C101.938 215.275 100.086 214.033 100.086 214.033C100.086 214.033 99.1103 216.042 99.6511 218.048Z" fill="#3F3D56"/>
<path d="M100.446 217.617C101.93 219.066 102.111 221.294 102.111 221.294C102.111 221.294 99.8863 221.172 98.4023 219.723C96.9183 218.274 96.7371 216.046 96.7371 216.046C96.7371 216.046 98.9618 216.168 100.446 217.617Z" fill="#217BF4"/>
<path d="M107.818 58.2898L101.297 53.0562L137.812 20.348H230.404V49.1313L170.415 89.6896L107.818 58.2898Z" fill="#3F3D56"/>
<path d="M247.286 38.6955V21.0014H234.992V25.3347L230.404 20.348L200.41 53.0562L188.673 60.9063L170.474 194.297L197.92 221.831H261.703V54.3646L247.286 38.6955Z" fill="#CCCCCC"/>
<path d="M200.41 53.0563H101.297V221.831H200.41V53.0563Z" fill="#F2F2F2"/>
<path d="M158.026 180.619H139.769V221.831H158.026V180.619Z" fill="#CCCCCC"/>
<path d="M120.207 192.394V185.852H112.382V192.394H119.555H120.207Z" fill="#3F3D56"/>
<path d="M119.555 197.627H112.382V204.169H120.207V197.627H119.555Z" fill="#3F3D56"/>
<path d="M133.248 185.852H125.423V192.394H133.248V185.852Z" fill="#3F3D56"/>
<path d="M133.248 197.627H125.423V204.169H133.248V197.627Z" fill="#3F3D56"/>
<path d="M173.675 192.394V185.852H165.851V192.394H173.023H173.675Z" fill="#3F3D56"/>
<path d="M173.023 197.627H165.851V204.169H173.675V197.627H173.023Z" fill="#3F3D56"/>
<path d="M186.717 185.852H178.892V192.394H186.717V185.852Z" fill="#3F3D56"/>
<path d="M186.717 197.627H178.892V204.169H186.717V197.627Z" fill="#3F3D56"/>
<path d="M228.448 61.5603V55.0189H220.623V61.5603H227.796H228.448Z" fill="#3F3D56"/>
<path d="M227.796 66.7939H220.623V73.3353H228.448V66.7939H227.796Z" fill="#3F3D56"/>
<path d="M241.489 55.0188H233.665V61.5605H241.489V55.0188Z" fill="#3F3D56"/>
<path d="M241.489 66.7938H233.665V73.3354H241.489V66.7938Z" fill="#3F3D56"/>
<path d="M228.448 98.1937V91.652H220.623V98.1937H227.796H228.448Z" fill="#3F3D56"/>
<path d="M227.796 103.427H220.623V109.969H228.448V103.427H227.796Z" fill="#3F3D56"/>
<path d="M241.489 91.6521H233.665V98.1937H241.489V91.6521Z" fill="#3F3D56"/>
<path d="M241.489 103.427H233.665V109.969H241.489V103.427Z" fill="#3F3D56"/>
<path d="M228.448 134.827V128.285H220.623V134.827H227.796H228.448Z" fill="#3F3D56"/>
<path d="M227.796 140.06H220.623V146.602H228.448V140.06H227.796Z" fill="#3F3D56"/>
<path d="M241.489 128.285H233.665V134.827H241.489V128.285Z" fill="#3F3D56"/>
<path d="M241.489 140.06H233.665V146.602H241.489V140.06Z" fill="#3F3D56"/>
<path d="M228.448 171.46V164.919H220.623V171.46H227.796H228.448Z" fill="#3F3D56"/>
<path d="M227.796 176.694H220.623V183.235H228.448V176.694H227.796Z" fill="#3F3D56"/>
<path d="M241.489 164.919H233.665V171.46H241.489V164.919Z" fill="#3F3D56"/>
<path d="M241.489 176.694H233.665V183.235H241.489V176.694Z" fill="#3F3D56"/>
<path d="M188.021 61.5604H112.382V77.2604H188.021V61.5604Z" fill="#3F3D56"/>
<path d="M188.021 92.9604H112.382V108.66H188.021V92.9604Z" fill="#3F3D56"/>
<path d="M188.021 124.36H112.382V140.06H188.021V124.36Z" fill="#3F3D56"/>
<path d="M188.021 155.76H112.382V171.46H188.021V155.76Z" fill="#3F3D56"/>
<path d="M363 221.173H0V221.813H363V221.173Z" fill="#3F3D56"/>
<path d="M62.6644 147.212H60.7888V221.538H62.6644V147.212Z" fill="#3F3D56"/>
<path d="M79.9739 156.684C80.0933 182.674 61.8671 203.827 61.8671 203.827C61.8671 203.827 43.4474 182.843 43.328 156.854C43.2086 130.864 61.4348 109.71 61.4348 109.71C61.4348 109.71 79.8545 130.694 79.9739 156.684Z" fill="#217BF4"/>
<path opacity="0.1" d="M79.9739 156.684C80.0933 182.674 61.8671 203.827 61.8671 203.827C61.8671 203.827 43.4474 182.843 43.328 156.854C43.2086 130.864 61.4348 109.71 61.4348 109.71C61.4348 109.71 79.8545 130.694 79.9739 156.684Z" fill="black"/>
<path d="M38.2818 147.212H36.4062V221.538H38.2818V147.212Z" fill="#3F3D56"/>
<path d="M55.5914 156.684C55.7108 182.674 37.4846 203.827 37.4846 203.827C37.4846 203.827 19.0648 182.843 18.9454 156.854C18.826 130.864 37.0522 109.71 37.0522 109.71C37.0522 109.71 55.472 130.694 55.5914 156.684Z" fill="#217BF4"/>
<path d="M301.879 52.9512C287.105 53.0195 275.079 53.2385 275.079 53.2385C275.079 53.2385 289.373 34.2427 301.825 41.2805C314.277 48.3183 328.582 52.9911 328.582 52.9911C328.582 52.9911 316.653 52.8829 301.879 52.9512Z" fill="#F2F2F2"/>
<path d="M55.7286 89.4648C40.9542 89.5331 28.9285 89.7521 28.9285 89.7521C28.9285 89.7521 43.223 70.7563 55.675 77.7941C68.127 84.8319 82.4312 89.5047 82.4312 89.5047C82.4312 89.5047 70.5029 89.3965 55.7286 89.4648Z" fill="#F2F2F2"/>
<path d="M109.364 13.2347C94.59 13.303 82.5642 13.522 82.5642 13.522C82.5642 13.522 96.8587 -5.47382 109.311 1.56399C121.763 8.6018 136.067 13.2746 136.067 13.2746C136.067 13.2746 124.139 13.1664 109.364 13.2347Z" fill="#F2F2F2"/>
<path d="M332.321 147.212H330.446V221.538H332.321V147.212Z" fill="#3F3D56"/>
<path d="M349.631 156.684C349.75 182.674 331.524 203.827 331.524 203.827C331.524 203.827 313.104 182.843 312.985 156.854C312.866 130.864 331.092 109.71 331.092 109.71C331.092 109.71 349.511 130.694 349.631 156.684Z" fill="#217BF4"/>
<path d="M263.284 175.403H282.213V170.819H292.656V175.403H312.237V195.702H292.656V221.24H282.213V195.702H263.284L253.493 184.57L263.284 175.403Z" fill="#3F3D56"/>
</g>
<defs>
<clipPath id="clip0_20_120">
<rect width="363" height="222" fill="white"/>
</clipPath>
</defs>
</svg>
